<mxfile host="app.diagrams.net" modified="2022-05-24T11:03:52.150Z" agent="5.0 (Windows NT 10.0; Win64; x64) AppleWebKit/537.36 (KHTML, like Gecko) Chrome/96.0.4664.45 Safari/537.36" etag="TM98yqN8pxhHfzfydVnD" version="17.4.6" type="github">
  <diagram id="42q5yrAbg_uipcMJJwmL" name="Page-1">
    <mxGraphModel dx="2619" dy="-207" grid="1" gridSize="10" guides="1" tooltips="1" connect="1" arrows="1" fold="1" page="1" pageScale="1" pageWidth="1169" pageHeight="827" math="0" shadow="0">
      <root>
        <mxCell id="0" />
        <mxCell id="1" parent="0" />
        <mxCell id="u6FiNlCxBWFaTgEtle5j-144" value="" style="rounded=0;whiteSpace=wrap;html=1;" parent="1" vertex="1">
          <mxGeometry x="220" y="1470" width="290" height="220" as="geometry" />
        </mxCell>
        <mxCell id="Mn06M0ClU7nQXyB_iKfc-53" value="" style="rounded=0;whiteSpace=wrap;html=1;" parent="1" vertex="1">
          <mxGeometry x="-243.45" y="883.09" width="743.45" height="156.72" as="geometry" />
        </mxCell>
        <mxCell id="Mn06M0ClU7nQXyB_iKfc-52" value="" style="rounded=0;whiteSpace=wrap;html=1;dashed=1;" parent="1" vertex="1">
          <mxGeometry x="357" y="923.39" width="130" height="104" as="geometry" />
        </mxCell>
        <mxCell id="Mn06M0ClU7nQXyB_iKfc-51" value="" style="rounded=0;whiteSpace=wrap;html=1;dashed=1;" parent="1" vertex="1">
          <mxGeometry x="219.8" y="923.39" width="130" height="104" as="geometry" />
        </mxCell>
        <mxCell id="Mn06M0ClU7nQXyB_iKfc-49" value="" style="rounded=0;whiteSpace=wrap;html=1;dashed=1;" parent="1" vertex="1">
          <mxGeometry x="81.48000000000002" y="925.1899999999999" width="130" height="104" as="geometry" />
        </mxCell>
        <mxCell id="Mn06M0ClU7nQXyB_iKfc-48" value="" style="rounded=0;whiteSpace=wrap;html=1;dashed=1;" parent="1" vertex="1">
          <mxGeometry x="-57.20999999999998" y="925.1899999999999" width="130" height="104" as="geometry" />
        </mxCell>
        <mxCell id="Mn06M0ClU7nQXyB_iKfc-47" value="" style="rounded=0;whiteSpace=wrap;html=1;dashed=1;" parent="1" vertex="1">
          <mxGeometry x="-194.75000000000003" y="925.1899999999999" width="130" height="104" as="geometry" />
        </mxCell>
        <mxCell id="Mn06M0ClU7nQXyB_iKfc-27" value="" style="rounded=0;whiteSpace=wrap;html=1;dashed=1;" parent="1" vertex="1">
          <mxGeometry x="430" y="1490" width="70" height="180" as="geometry" />
        </mxCell>
        <mxCell id="Mn06M0ClU7nQXyB_iKfc-23" value="" style="rounded=0;whiteSpace=wrap;html=1;" parent="1" vertex="1">
          <mxGeometry x="-430" y="1330" width="160" height="60" as="geometry" />
        </mxCell>
        <mxCell id="u6FiNlCxBWFaTgEtle5j-204" value="" style="rounded=0;whiteSpace=wrap;html=1;fillColor=#FFFFFF;" parent="1" vertex="1">
          <mxGeometry x="556" y="1238.06" width="220" height="451.94" as="geometry" />
        </mxCell>
        <mxCell id="u6FiNlCxBWFaTgEtle5j-233" value="" style="rounded=0;whiteSpace=wrap;html=1;shadow=0;dashed=1;fillColor=#FFFFFF;" parent="1" vertex="1">
          <mxGeometry x="568" y="1250" width="192" height="109.31" as="geometry" />
        </mxCell>
        <mxCell id="u6FiNlCxBWFaTgEtle5j-140" value="" style="rounded=0;whiteSpace=wrap;html=1;" parent="1" vertex="1">
          <mxGeometry x="-423.7" y="1470" width="613.7" height="220" as="geometry" />
        </mxCell>
        <mxCell id="u6FiNlCxBWFaTgEtle5j-33" value="" style="rounded=0;whiteSpace=wrap;html=1;fillColor=#FFFFFF;" parent="1" vertex="1">
          <mxGeometry x="-243.45" y="1050" width="743.45" height="370" as="geometry" />
        </mxCell>
        <mxCell id="u6FiNlCxBWFaTgEtle5j-97" value="" style="rounded=0;whiteSpace=wrap;html=1;dashed=1;" parent="1" vertex="1">
          <mxGeometry x="6.550000000000011" y="1090" width="440" height="290" as="geometry" />
        </mxCell>
        <mxCell id="MQpAyLM7WQvq7NCeplu3-220" value="" style="rounded=0;whiteSpace=wrap;html=1;fontSize=14;strokeColor=#000000;fillColor=#FFFFFF;dashed=1;" parent="1" vertex="1">
          <mxGeometry x="-399.46000000000004" y="1600.53" width="160" height="80" as="geometry" />
        </mxCell>
        <mxCell id="MQpAyLM7WQvq7NCeplu3-109" value="" style="rounded=0;whiteSpace=wrap;html=1;fontSize=14;strokeColor=#000000;fillColor=#FFFFFF;dashed=1;" parent="1" vertex="1">
          <mxGeometry x="11.989999999999904" y="1491.25" width="160" height="80" as="geometry" />
        </mxCell>
        <mxCell id="MQpAyLM7WQvq7NCeplu3-41" value="" style="rounded=0;whiteSpace=wrap;html=1;" parent="1" vertex="1">
          <mxGeometry x="-333.45" y="880" width="55" height="410" as="geometry" />
        </mxCell>
        <mxCell id="MQpAyLM7WQvq7NCeplu3-40" value="" style="rounded=0;whiteSpace=wrap;html=1;" parent="1" vertex="1">
          <mxGeometry x="-423.7" y="880" width="60.25" height="410" as="geometry" />
        </mxCell>
        <mxCell id="MQpAyLM7WQvq7NCeplu3-11" value="" style="rounded=0;whiteSpace=wrap;html=1;fillColor=#FFFFFF;rotation=90;strokeWidth=1;" parent="1" vertex="1">
          <mxGeometry x="-944.11" y="1221.77" width="809.9" height="123" as="geometry" />
        </mxCell>
        <mxCell id="MQpAyLM7WQvq7NCeplu3-6" value="" style="sketch=0;aspect=fixed;pointerEvents=1;shadow=0;dashed=0;html=1;strokeColor=none;labelPosition=center;verticalLabelPosition=bottom;verticalAlign=top;align=center;fillColor=#00188D;shape=mxgraph.mscae.enterprise.android_phone" parent="1" vertex="1">
          <mxGeometry x="-559.0000000000001" y="1277.4999999999998" width="30" height="50" as="geometry" />
        </mxCell>
        <mxCell id="MQpAyLM7WQvq7NCeplu3-7" value="" style="sketch=0;aspect=fixed;pointerEvents=1;shadow=0;dashed=0;html=1;strokeColor=none;labelPosition=center;verticalLabelPosition=bottom;verticalAlign=top;align=center;fillColor=#00188D;shape=mxgraph.mscae.enterprise.application" parent="1" vertex="1">
          <mxGeometry x="-564.0000000000001" y="1471.07" width="50" height="34" as="geometry" />
        </mxCell>
        <mxCell id="MQpAyLM7WQvq7NCeplu3-9" value="" style="sketch=0;aspect=fixed;pointerEvents=1;shadow=0;dashed=0;html=1;strokeColor=none;labelPosition=center;verticalLabelPosition=bottom;verticalAlign=top;align=center;fillColor=#00188D;shape=mxgraph.azure.laptop" parent="1" vertex="1">
          <mxGeometry x="-569.0000000000001" y="1124.99" width="50" height="30" as="geometry" />
        </mxCell>
        <mxCell id="MQpAyLM7WQvq7NCeplu3-12" value="" style="sketch=0;aspect=fixed;html=1;points=[];align=center;image;fontSize=12;image=img/lib/mscae/Azure_Database_for_MySQL_servers.svg;" parent="1" vertex="1">
          <mxGeometry x="-386.26" y="1631.2099999999998" width="32.3" height="42.5" as="geometry" />
        </mxCell>
        <mxCell id="MQpAyLM7WQvq7NCeplu3-31" value="CLB" style="text;html=1;strokeColor=none;fillColor=none;align=center;verticalAlign=middle;whiteSpace=wrap;rounded=0;" parent="1" vertex="1">
          <mxGeometry x="-333.23" y="1204.68" width="60" height="30" as="geometry" />
        </mxCell>
        <mxCell id="MQpAyLM7WQvq7NCeplu3-36" value="" style="aspect=fixed;html=1;points=[];align=center;image;fontSize=12;image=img/lib/azure2/networking/Web_Application_Firewall_Policies_WAF.svg;" parent="1" vertex="1">
          <mxGeometry x="-416" y="1051.0000000000002" width="39" height="39" as="geometry" />
        </mxCell>
        <mxCell id="MQpAyLM7WQvq7NCeplu3-37" value="" style="shape=mxgraph.cisco.misc.ios_slb;html=1;pointerEvents=1;dashed=0;fillColor=#036897;strokeColor=#ffffff;strokeWidth=2;verticalLabelPosition=bottom;verticalAlign=top;align=center;outlineConnect=0;" parent="1" vertex="1">
          <mxGeometry x="-322.45" y="1168.06" width="38.45" height="30" as="geometry" />
        </mxCell>
        <mxCell id="MQpAyLM7WQvq7NCeplu3-38" value="WAF" style="text;html=1;strokeColor=none;fillColor=none;align=center;verticalAlign=middle;whiteSpace=wrap;rounded=0;" parent="1" vertex="1">
          <mxGeometry x="-423.45" y="1102.06" width="60" height="30" as="geometry" />
        </mxCell>
        <mxCell id="MQpAyLM7WQvq7NCeplu3-62" value="" style="sketch=0;aspect=fixed;html=1;points=[];align=center;image;fontSize=12;image=img/lib/mscae/Azure_Database_for_MySQL_servers.svg;" parent="1" vertex="1">
          <mxGeometry x="-275.3799999999999" y="1632.84" width="30.78" height="40.5" as="geometry" />
        </mxCell>
        <mxCell id="MQpAyLM7WQvq7NCeplu3-79" value="" style="sketch=0;points=[[0,0,0],[0.25,0,0],[0.5,0,0],[0.75,0,0],[1,0,0],[0,1,0],[0.25,1,0],[0.5,1,0],[0.75,1,0],[1,1,0],[0,0.25,0],[0,0.5,0],[0,0.75,0],[1,0.25,0],[1,0.5,0],[1,0.75,0]];outlineConnect=0;fontColor=#232F3E;gradientColor=#4AB29A;gradientDirection=north;fillColor=#116D5B;strokeColor=#ffffff;dashed=0;verticalLabelPosition=bottom;verticalAlign=top;align=center;html=1;fontSize=12;fontStyle=0;aspect=fixed;shape=mxgraph.aws4.resourceIcon;resIcon=mxgraph.aws4.application_discovery_service;" parent="1" vertex="1">
          <mxGeometry x="-103.27999999999992" y="960.5799999999999" width="32.5" height="32.5" as="geometry" />
        </mxCell>
        <mxCell id="MQpAyLM7WQvq7NCeplu3-91" value="Sentinel" style="text;html=1;strokeColor=none;fillColor=none;align=center;verticalAlign=middle;whiteSpace=wrap;rounded=0;fontSize=14;" parent="1" vertex="1">
          <mxGeometry x="-49.65999999999997" y="932.1100000000001" width="56.5" height="10" as="geometry" />
        </mxCell>
        <mxCell id="MQpAyLM7WQvq7NCeplu3-92" value="" style="sketch=0;aspect=fixed;html=1;points=[];align=center;image;fontSize=12;image=img/lib/mscae/Azure_Sentinel.svg;strokeColor=#33FFFF;fillColor=#97D077;flipV=0;flipH=1;" parent="1" vertex="1">
          <mxGeometry x="-10.059999999999999" y="955.39" width="37.73" height="42.87" as="geometry" />
        </mxCell>
        <mxCell id="MQpAyLM7WQvq7NCeplu3-111" value="" style="endArrow=classic;html=1;rounded=0;fontSize=14;exitX=-0.026;exitY=0.49;exitDx=0;exitDy=0;exitPerimeter=0;" parent="1" source="MQpAyLM7WQvq7NCeplu3-62" target="MQpAyLM7WQvq7NCeplu3-12" edge="1">
          <mxGeometry width="50" height="50" relative="1" as="geometry">
            <mxPoint x="-295.22" y="1851.34" as="sourcePoint" />
            <mxPoint x="-245.22000000000003" y="1801.34" as="targetPoint" />
          </mxGeometry>
        </mxCell>
        <mxCell id="MQpAyLM7WQvq7NCeplu3-162" value="replica" style="edgeLabel;html=1;align=center;verticalAlign=middle;resizable=0;points=[];fontSize=14;" parent="MQpAyLM7WQvq7NCeplu3-111" vertex="1" connectable="0">
          <mxGeometry x="-0.3889" y="-2" relative="1" as="geometry">
            <mxPoint x="-15" y="2" as="offset" />
          </mxGeometry>
        </mxCell>
        <mxCell id="MQpAyLM7WQvq7NCeplu3-163" value="Redis" style="text;html=1;strokeColor=none;fillColor=none;align=center;verticalAlign=middle;whiteSpace=wrap;rounded=0;fontSize=14;" parent="1" vertex="1">
          <mxGeometry x="9.120000000000013" y="1489.18" width="60" height="30" as="geometry" />
        </mxCell>
        <mxCell id="MQpAyLM7WQvq7NCeplu3-166" value="&lt;b&gt;HU/TBOX&lt;/b&gt;" style="text;html=1;strokeColor=none;fillColor=none;align=center;verticalAlign=middle;whiteSpace=wrap;rounded=0;fontSize=14;" parent="1" vertex="1">
          <mxGeometry x="-569.1700000000001" y="1505.07" width="60" height="30" as="geometry" />
        </mxCell>
        <mxCell id="MQpAyLM7WQvq7NCeplu3-172" value="Nacos" style="text;html=1;strokeColor=none;fillColor=none;align=center;verticalAlign=middle;whiteSpace=wrap;rounded=0;fontSize=14;" parent="1" vertex="1">
          <mxGeometry x="-193.85" y="920" width="60" height="30" as="geometry" />
        </mxCell>
        <mxCell id="MQpAyLM7WQvq7NCeplu3-174" value="" style="sketch=0;points=[[0,0,0],[0.25,0,0],[0.5,0,0],[0.75,0,0],[1,0,0],[0,1,0],[0.25,1,0],[0.5,1,0],[0.75,1,0],[1,1,0],[0,0.25,0],[0,0.5,0],[0,0.75,0],[1,0.25,0],[1,0.5,0],[1,0.75,0]];outlineConnect=0;fontColor=#232F3E;gradientColor=#4AB29A;gradientDirection=north;fillColor=#116D5B;strokeColor=#ffffff;dashed=0;verticalLabelPosition=bottom;verticalAlign=top;align=center;html=1;fontSize=12;fontStyle=0;aspect=fixed;shape=mxgraph.aws4.resourceIcon;resIcon=mxgraph.aws4.forecast;" parent="1" vertex="1">
          <mxGeometry x="124.73" y="959.14" width="36.83" height="36.83" as="geometry" />
        </mxCell>
        <mxCell id="MQpAyLM7WQvq7NCeplu3-183" style="edgeStyle=none;rounded=0;orthogonalLoop=1;jettySize=auto;html=1;exitX=0.5;exitY=0;exitDx=0;exitDy=0;exitPerimeter=0;fontSize=14;" parent="1" source="MQpAyLM7WQvq7NCeplu3-37" target="MQpAyLM7WQvq7NCeplu3-37" edge="1">
          <mxGeometry relative="1" as="geometry" />
        </mxCell>
        <mxCell id="MQpAyLM7WQvq7NCeplu3-206" value="Skywalking" style="text;html=1;align=center;verticalAlign=middle;whiteSpace=wrap;rounded=0;fontSize=14;" parent="1" vertex="1">
          <mxGeometry x="92.23000000000005" y="930.2" width="56.5" height="10" as="geometry" />
        </mxCell>
        <mxCell id="MQpAyLM7WQvq7NCeplu3-209" value="" style="outlineConnect=0;dashed=0;verticalLabelPosition=bottom;verticalAlign=top;align=center;html=1;shape=mxgraph.aws3.mqtt_protocol;fillColor=#5294CF;gradientColor=none;fontSize=14;strokeColor=#33FFFF;" parent="1" vertex="1">
          <mxGeometry x="-382.3999999999999" y="1338.1900000000003" width="42.75" height="37" as="geometry" />
        </mxCell>
        <mxCell id="MQpAyLM7WQvq7NCeplu3-210" value="" style="sketch=0;aspect=fixed;html=1;points=[];align=center;image;fontSize=12;image=img/lib/mscae/Cache_Redis_Product.svg;" parent="1" vertex="1">
          <mxGeometry x="31.12000000000001" y="1542.13" width="32.44" height="27.25" as="geometry" />
        </mxCell>
        <mxCell id="MQpAyLM7WQvq7NCeplu3-211" value="" style="sketch=0;points=[[0,0,0],[0.25,0,0],[0.5,0,0],[0.75,0,0],[1,0,0],[0,1,0],[0.25,1,0],[0.5,1,0],[0.75,1,0],[1,1,0],[0,0.25,0],[0,0.5,0],[0,0.75,0],[1,0.25,0],[1,0.5,0],[1,0.75,0]];outlineConnect=0;fontColor=#232F3E;gradientColor=#4AB29A;gradientDirection=north;fillColor=#116D5B;strokeColor=#ffffff;dashed=0;verticalLabelPosition=bottom;verticalAlign=top;align=center;html=1;fontSize=12;fontStyle=0;aspect=fixed;shape=mxgraph.aws4.resourceIcon;resIcon=mxgraph.aws4.application_discovery_service;" parent="1" vertex="1">
          <mxGeometry x="-183.6999999999999" y="959.14" width="32.5" height="32.5" as="geometry" />
        </mxCell>
        <mxCell id="u6FiNlCxBWFaTgEtle5j-21" value="feign&lt;br&gt;ribbon" style="text;html=1;strokeColor=none;fillColor=none;align=center;verticalAlign=middle;whiteSpace=wrap;rounded=0;" parent="1" vertex="1">
          <mxGeometry x="184.29000000000002" y="1205.75" width="60" height="30" as="geometry" />
        </mxCell>
        <mxCell id="u6FiNlCxBWFaTgEtle5j-24" value="" style="rounded=0;whiteSpace=wrap;html=1;dashed=1;" parent="1" vertex="1">
          <mxGeometry x="-173.45" y="1090" width="130" height="290" as="geometry" />
        </mxCell>
        <mxCell id="u6FiNlCxBWFaTgEtle5j-29" value="" style="rounded=0;whiteSpace=wrap;html=1;strokeColor=#000000;fillColor=#FFFFFF;" parent="1" vertex="1">
          <mxGeometry x="-163.57" y="1239.87" width="103.57" height="95.88" as="geometry" />
        </mxCell>
        <mxCell id="u6FiNlCxBWFaTgEtle5j-30" value="网关应用" style="ellipse;whiteSpace=wrap;html=1;fillColor=#33FFFF;" parent="1" vertex="1">
          <mxGeometry x="-147.45" y="1269.25" width="67.5" height="42" as="geometry" />
        </mxCell>
        <mxCell id="u6FiNlCxBWFaTgEtle5j-31" value="&lt;font style=&quot;font-size: 14px&quot;&gt;pod&lt;/font&gt;" style="text;html=1;strokeColor=none;fillColor=none;align=center;verticalAlign=middle;whiteSpace=wrap;rounded=0;" parent="1" vertex="1">
          <mxGeometry x="-143.7" y="1238" width="60" height="30" as="geometry" />
        </mxCell>
        <mxCell id="u6FiNlCxBWFaTgEtle5j-32" value="apm agent" style="sketch=0;points=[[0,0,0],[0.25,0,0],[0.5,0,0],[0.75,0,0],[1,0,0],[0,1,0],[0.25,1,0],[0.5,1,0],[0.75,1,0],[1,1,0],[0,0.25,0],[0,0.5,0],[0,0.75,0],[1,0.25,0],[1,0.5,0],[1,0.75,0]];outlineConnect=0;fontColor=#232F3E;gradientColor=#F78E04;gradientDirection=north;fillColor=#D05C17;strokeColor=#ffffff;dashed=0;verticalLabelPosition=bottom;verticalAlign=top;align=center;html=1;fontSize=12;fontStyle=0;aspect=fixed;shape=mxgraph.aws4.resourceIcon;resIcon=mxgraph.aws4.compute;direction=south;" parent="1" vertex="1">
          <mxGeometry x="-83.69999999999999" y="1314.06" width="18" height="18" as="geometry" />
        </mxCell>
        <mxCell id="u6FiNlCxBWFaTgEtle5j-34" value="" style="rounded=0;whiteSpace=wrap;html=1;strokeColor=#000000;fillColor=#FFFFFF;" parent="1" vertex="1">
          <mxGeometry x="-162.45" y="1124.12" width="99.75" height="95.88" as="geometry" />
        </mxCell>
        <mxCell id="u6FiNlCxBWFaTgEtle5j-35" value="网关应用" style="ellipse;whiteSpace=wrap;html=1;fillColor=#33FFFF;" parent="1" vertex="1">
          <mxGeometry x="-151.2" y="1165" width="67.5" height="42" as="geometry" />
        </mxCell>
        <mxCell id="u6FiNlCxBWFaTgEtle5j-36" value="&lt;font style=&quot;font-size: 14px&quot;&gt;pod&lt;/font&gt;" style="text;html=1;strokeColor=none;fillColor=none;align=center;verticalAlign=middle;whiteSpace=wrap;rounded=0;" parent="1" vertex="1">
          <mxGeometry x="-147.45" y="1132.06" width="60" height="30" as="geometry" />
        </mxCell>
        <mxCell id="u6FiNlCxBWFaTgEtle5j-37" value="" style="rounded=0;whiteSpace=wrap;html=1;dashed=1;" parent="1" vertex="1">
          <mxGeometry x="27.05000000000001" y="1119.06" width="129.5" height="250.94" as="geometry" />
        </mxCell>
        <mxCell id="u6FiNlCxBWFaTgEtle5j-38" value="" style="rounded=0;whiteSpace=wrap;html=1;strokeColor=#000000;fillColor=#FFFFFF;" parent="1" vertex="1">
          <mxGeometry x="38.05000000000001" y="1240.68" width="99.75" height="95.88" as="geometry" />
        </mxCell>
        <mxCell id="u6FiNlCxBWFaTgEtle5j-39" value="业务应用1" style="ellipse;whiteSpace=wrap;html=1;fillColor=#33FFFF;" parent="1" vertex="1">
          <mxGeometry x="53.05000000000001" y="1267.68" width="67.5" height="42" as="geometry" />
        </mxCell>
        <mxCell id="u6FiNlCxBWFaTgEtle5j-40" value="&lt;font style=&quot;font-size: 14px&quot;&gt;pod&lt;/font&gt;" style="text;html=1;strokeColor=none;fillColor=none;align=center;verticalAlign=middle;whiteSpace=wrap;rounded=0;" parent="1" vertex="1">
          <mxGeometry x="56.80000000000001" y="1234.68" width="60" height="30" as="geometry" />
        </mxCell>
        <mxCell id="u6FiNlCxBWFaTgEtle5j-41" value="" style="rounded=0;whiteSpace=wrap;html=1;strokeColor=#000000;fillColor=#FFFFFF;" parent="1" vertex="1">
          <mxGeometry x="38.05000000000001" y="1124.12" width="99.75" height="95.88" as="geometry" />
        </mxCell>
        <mxCell id="u6FiNlCxBWFaTgEtle5j-42" value="业务应用1" style="ellipse;whiteSpace=wrap;html=1;fillColor=#33FFFF;" parent="1" vertex="1">
          <mxGeometry x="49.30000000000001" y="1162.06" width="67.5" height="42" as="geometry" />
        </mxCell>
        <mxCell id="u6FiNlCxBWFaTgEtle5j-43" value="" style="rounded=0;whiteSpace=wrap;html=1;dashed=1;" parent="1" vertex="1">
          <mxGeometry x="282.17" y="1120" width="146" height="240" as="geometry" />
        </mxCell>
        <mxCell id="u6FiNlCxBWFaTgEtle5j-44" value="" style="rounded=0;whiteSpace=wrap;html=1;strokeColor=#000000;fillColor=#FFFFFF;" parent="1" vertex="1">
          <mxGeometry x="305.3" y="1242.31" width="99.75" height="95.88" as="geometry" />
        </mxCell>
        <mxCell id="u6FiNlCxBWFaTgEtle5j-45" value="业务应用2" style="ellipse;whiteSpace=wrap;html=1;fillColor=#33FFFF;" parent="1" vertex="1">
          <mxGeometry x="316.19" y="1268.37" width="67.5" height="42" as="geometry" />
        </mxCell>
        <mxCell id="u6FiNlCxBWFaTgEtle5j-46" value="&lt;font style=&quot;font-size: 14px&quot;&gt;pod&lt;/font&gt;" style="text;html=1;strokeColor=none;fillColor=none;align=center;verticalAlign=middle;whiteSpace=wrap;rounded=0;" parent="1" vertex="1">
          <mxGeometry x="319.3" y="1238.06" width="60" height="30" as="geometry" />
        </mxCell>
        <mxCell id="u6FiNlCxBWFaTgEtle5j-47" value="" style="rounded=0;whiteSpace=wrap;html=1;strokeColor=#000000;fillColor=#FFFFFF;" parent="1" vertex="1">
          <mxGeometry x="305.3" y="1124.12" width="99.75" height="95.88" as="geometry" />
        </mxCell>
        <mxCell id="u6FiNlCxBWFaTgEtle5j-48" value="业务应用2" style="ellipse;whiteSpace=wrap;html=1;fillColor=#33FFFF;" parent="1" vertex="1">
          <mxGeometry x="316.19" y="1156.06" width="67.5" height="42" as="geometry" />
        </mxCell>
        <mxCell id="u6FiNlCxBWFaTgEtle5j-49" value="&lt;font style=&quot;font-size: 14px&quot;&gt;pod&lt;/font&gt;" style="text;html=1;strokeColor=none;fillColor=#FFFFFF;align=center;verticalAlign=middle;whiteSpace=wrap;rounded=0;" parent="1" vertex="1">
          <mxGeometry x="323.69" y="1124.12" width="60" height="30" as="geometry" />
        </mxCell>
        <mxCell id="u6FiNlCxBWFaTgEtle5j-51" value="&lt;font style=&quot;font-size: 14px&quot;&gt;pod&lt;/font&gt;" style="text;html=1;strokeColor=none;fillColor=none;align=center;verticalAlign=middle;whiteSpace=wrap;rounded=0;" parent="1" vertex="1">
          <mxGeometry x="53.05000000000001" y="1132.06" width="60" height="30" as="geometry" />
        </mxCell>
        <mxCell id="u6FiNlCxBWFaTgEtle5j-56" value="" style="endArrow=classic;html=1;rounded=0;entryX=1;entryY=0.75;entryDx=0;entryDy=0;" parent="1" source="u6FiNlCxBWFaTgEtle5j-24" target="u6FiNlCxBWFaTgEtle5j-57" edge="1">
          <mxGeometry width="50" height="50" relative="1" as="geometry">
            <mxPoint x="66.55000000000001" y="1289.06" as="sourcePoint" />
            <mxPoint x="20" y="1240" as="targetPoint" />
          </mxGeometry>
        </mxCell>
        <mxCell id="u6FiNlCxBWFaTgEtle5j-57" value="ribbon" style="text;html=1;strokeColor=none;fillColor=none;align=center;verticalAlign=middle;whiteSpace=wrap;rounded=0;" parent="1" vertex="1">
          <mxGeometry x="-43.45" y="1216" width="53.45" height="24" as="geometry" />
        </mxCell>
        <mxCell id="u6FiNlCxBWFaTgEtle5j-59" value="注册中心和配置中心" style="text;html=1;strokeColor=none;fillColor=none;align=center;verticalAlign=middle;whiteSpace=wrap;rounded=0;" parent="1" vertex="1">
          <mxGeometry x="-193.6" y="1005.0500000000001" width="144" height="20" as="geometry" />
        </mxCell>
        <mxCell id="u6FiNlCxBWFaTgEtle5j-63" value="" style="sketch=0;html=1;dashed=0;whitespace=wrap;fillColor=#116D5B;strokeColor=#ffffff;points=[[0.005,0.63,0],[0.1,0.2,0],[0.9,0.2,0],[0.5,0,0],[0.995,0.63,0],[0.72,0.99,0],[0.5,1,0],[0.28,0.99,0]];shape=mxgraph.kubernetes.icon;prIcon=ep;fontFamily=Helvetica;fontSize=12;fontColor=#232F3E;align=center;gradientColor=#4AB29A;" parent="1" vertex="1">
          <mxGeometry x="395.63000000000005" y="953.6999999999999" width="44.37" height="40" as="geometry" />
        </mxCell>
        <mxCell id="u6FiNlCxBWFaTgEtle5j-64" value="Setata" style="text;html=1;strokeColor=none;fillColor=none;align=center;verticalAlign=middle;whiteSpace=wrap;rounded=0;fontSize=14;" parent="1" vertex="1">
          <mxGeometry x="361.30999999999995" y="931.11" width="49.39" height="10" as="geometry" />
        </mxCell>
        <mxCell id="u6FiNlCxBWFaTgEtle5j-65" value="" style="sketch=0;aspect=fixed;html=1;points=[];align=center;image;fontSize=12;image=img/lib/mscae/SchedulerJobCollection.svg;" parent="1" vertex="1">
          <mxGeometry x="270.29999999999995" y="946.45" width="34.88" height="30" as="geometry" />
        </mxCell>
        <mxCell id="u6FiNlCxBWFaTgEtle5j-67" value="XXL-JOB" style="text;html=1;strokeColor=none;fillColor=none;align=center;verticalAlign=middle;whiteSpace=wrap;rounded=0;" parent="1" vertex="1">
          <mxGeometry x="211.48000000000002" y="925.67" width="74" height="30" as="geometry" />
        </mxCell>
        <mxCell id="u6FiNlCxBWFaTgEtle5j-68" value="" style="sketch=0;aspect=fixed;html=1;points=[];align=center;image;fontSize=12;image=img/lib/mscae/SchedulerJobCollection.svg;" parent="1" vertex="1">
          <mxGeometry x="313.5500000000002" y="967.11" width="34.81" height="29.94" as="geometry" />
        </mxCell>
        <mxCell id="u6FiNlCxBWFaTgEtle5j-69" value="" style="sketch=0;aspect=fixed;html=1;points=[];align=center;image;fontSize=12;image=img/lib/mscae/SchedulerJobCollection.svg;" parent="1" vertex="1">
          <mxGeometry x="228.17999999999995" y="966.19" width="34.88" height="30" as="geometry" />
        </mxCell>
        <mxCell id="u6FiNlCxBWFaTgEtle5j-79" value="" style="rounded=0;whiteSpace=wrap;html=1;fillColor=#FFFFFF;dashed=1;" parent="1" vertex="1">
          <mxGeometry x="-226.45" y="1060" width="50" height="350" as="geometry" />
        </mxCell>
        <mxCell id="u6FiNlCxBWFaTgEtle5j-92" value="apm agent" style="sketch=0;points=[[0,0,0],[0.25,0,0],[0.5,0,0],[0.75,0,0],[1,0,0],[0,1,0],[0.25,1,0],[0.5,1,0],[0.75,1,0],[1,1,0],[0,0.25,0],[0,0.5,0],[0,0.75,0],[1,0.25,0],[1,0.5,0],[1,0.75,0]];outlineConnect=0;fontColor=#232F3E;gradientColor=#F78E04;gradientDirection=north;fillColor=#D05C17;strokeColor=#ffffff;dashed=0;verticalLabelPosition=bottom;verticalAlign=top;align=center;html=1;fontSize=12;fontStyle=0;aspect=fixed;shape=mxgraph.aws4.resourceIcon;resIcon=mxgraph.aws4.compute;direction=south;" parent="1" vertex="1">
          <mxGeometry x="-81.82" y="1195" width="18" height="18" as="geometry" />
        </mxCell>
        <mxCell id="u6FiNlCxBWFaTgEtle5j-93" value="amp agent" style="sketch=0;points=[[0,0,0],[0.25,0,0],[0.5,0,0],[0.75,0,0],[1,0,0],[0,1,0],[0.25,1,0],[0.5,1,0],[0.75,1,0],[1,1,0],[0,0.25,0],[0,0.5,0],[0,0.75,0],[1,0.25,0],[1,0.5,0],[1,0.75,0]];outlineConnect=0;fontColor=#232F3E;gradientColor=#F78E04;gradientDirection=north;fillColor=#D05C17;strokeColor=#ffffff;dashed=0;verticalLabelPosition=bottom;verticalAlign=top;align=center;html=1;fontSize=12;fontStyle=0;aspect=fixed;shape=mxgraph.aws4.resourceIcon;resIcon=mxgraph.aws4.compute;direction=south;" parent="1" vertex="1">
          <mxGeometry x="116.80000000000001" y="1196.5" width="18" height="18" as="geometry" />
        </mxCell>
        <mxCell id="u6FiNlCxBWFaTgEtle5j-94" value="apm agent" style="sketch=0;points=[[0,0,0],[0.25,0,0],[0.5,0,0],[0.75,0,0],[1,0,0],[0,1,0],[0.25,1,0],[0.5,1,0],[0.75,1,0],[1,1,0],[0,0.25,0],[0,0.5,0],[0,0.75,0],[1,0.25,0],[1,0.5,0],[1,0.75,0]];outlineConnect=0;fontColor=#232F3E;gradientColor=#F78E04;gradientDirection=north;fillColor=#D05C17;strokeColor=#ffffff;dashed=0;verticalLabelPosition=bottom;verticalAlign=top;align=center;html=1;fontSize=12;fontStyle=0;aspect=fixed;shape=mxgraph.aws4.resourceIcon;resIcon=mxgraph.aws4.compute;direction=south;" parent="1" vertex="1">
          <mxGeometry x="116.80000000000001" y="1314.06" width="18" height="18" as="geometry" />
        </mxCell>
        <mxCell id="u6FiNlCxBWFaTgEtle5j-95" value="apm agent" style="sketch=0;points=[[0,0,0],[0.25,0,0],[0.5,0,0],[0.75,0,0],[1,0,0],[0,1,0],[0.25,1,0],[0.5,1,0],[0.75,1,0],[1,1,0],[0,0.25,0],[0,0.5,0],[0,0.75,0],[1,0.25,0],[1,0.5,0],[1,0.75,0]];outlineConnect=0;fontColor=#232F3E;gradientColor=#F78E04;gradientDirection=north;fillColor=#D05C17;strokeColor=#ffffff;dashed=0;verticalLabelPosition=bottom;verticalAlign=top;align=center;html=1;fontSize=12;fontStyle=0;aspect=fixed;shape=mxgraph.aws4.resourceIcon;resIcon=mxgraph.aws4.compute;direction=south;" parent="1" vertex="1">
          <mxGeometry x="383.69" y="1198.06" width="21.94" height="21.94" as="geometry" />
        </mxCell>
        <mxCell id="u6FiNlCxBWFaTgEtle5j-96" value="apm agent" style="sketch=0;points=[[0,0,0],[0.25,0,0],[0.5,0,0],[0.75,0,0],[1,0,0],[0,1,0],[0.25,1,0],[0.5,1,0],[0.75,1,0],[1,1,0],[0,0.25,0],[0,0.5,0],[0,0.75,0],[1,0.25,0],[1,0.5,0],[1,0.75,0]];outlineConnect=0;fontColor=#232F3E;gradientColor=#F78E04;gradientDirection=north;fillColor=#D05C17;strokeColor=#ffffff;dashed=0;verticalLabelPosition=bottom;verticalAlign=top;align=center;html=1;fontSize=12;fontStyle=0;aspect=fixed;shape=mxgraph.aws4.resourceIcon;resIcon=mxgraph.aws4.compute;direction=south;" parent="1" vertex="1">
          <mxGeometry x="383.69" y="1317.75" width="18" height="18" as="geometry" />
        </mxCell>
        <mxCell id="u6FiNlCxBWFaTgEtle5j-98" value="业务服务集群" style="text;html=1;strokeColor=none;fillColor=none;align=center;verticalAlign=middle;whiteSpace=wrap;rounded=0;" parent="1" vertex="1">
          <mxGeometry x="168.54000000000002" y="1101.06" width="98" height="18" as="geometry" />
        </mxCell>
        <mxCell id="u6FiNlCxBWFaTgEtle5j-108" value="" style="sketch=0;aspect=fixed;html=1;points=[];align=center;image;fontSize=12;image=img/lib/mscae/Cache_Redis_Product.svg;" parent="1" vertex="1">
          <mxGeometry x="83.76" y="1514.8300000000002" width="31.31" height="26.3" as="geometry" />
        </mxCell>
        <mxCell id="u6FiNlCxBWFaTgEtle5j-109" value="" style="sketch=0;aspect=fixed;html=1;points=[];align=center;image;fontSize=12;image=img/lib/mscae/Cache_Redis_Product.svg;" parent="1" vertex="1">
          <mxGeometry x="130.67999999999995" y="1542" width="32.44" height="27.25" as="geometry" />
        </mxCell>
        <mxCell id="u6FiNlCxBWFaTgEtle5j-112" value="" style="rounded=0;whiteSpace=wrap;html=1;fontSize=14;strokeColor=#000000;fillColor=#FFFFFF;dashed=1;" parent="1" vertex="1">
          <mxGeometry x="-181.41999999999996" y="1600.34" width="160" height="80" as="geometry" />
        </mxCell>
        <mxCell id="u6FiNlCxBWFaTgEtle5j-114" value="MySQL" style="text;html=1;strokeColor=none;fillColor=none;align=center;verticalAlign=middle;whiteSpace=wrap;rounded=0;fontSize=14;" parent="1" vertex="1">
          <mxGeometry x="-399.64999999999986" y="1602.8400000000001" width="60" height="30" as="geometry" />
        </mxCell>
        <mxCell id="u6FiNlCxBWFaTgEtle5j-117" value="ES" style="text;html=1;strokeColor=none;fillColor=none;align=center;verticalAlign=middle;whiteSpace=wrap;rounded=0;fontSize=14;" parent="1" vertex="1">
          <mxGeometry x="-183.5300000000001" y="1598.53" width="40.26" height="21.81" as="geometry" />
        </mxCell>
        <mxCell id="u6FiNlCxBWFaTgEtle5j-119" value="kubernetes集群" style="text;html=1;strokeColor=none;fillColor=none;align=center;verticalAlign=middle;whiteSpace=wrap;rounded=0;" parent="1" vertex="1">
          <mxGeometry x="22.55000000000001" y="1056.5" width="98" height="18" as="geometry" />
        </mxCell>
        <mxCell id="u6FiNlCxBWFaTgEtle5j-123" value="限流，熔断" style="text;html=1;strokeColor=none;fillColor=none;align=center;verticalAlign=middle;whiteSpace=wrap;rounded=0;" parent="1" vertex="1">
          <mxGeometry x="-63.81999999999992" y="1005.0500000000001" width="144" height="20" as="geometry" />
        </mxCell>
        <mxCell id="u6FiNlCxBWFaTgEtle5j-131" value="链路跟踪" style="text;html=1;strokeColor=none;fillColor=none;align=center;verticalAlign=middle;whiteSpace=wrap;rounded=0;" parent="1" vertex="1">
          <mxGeometry x="76.0000000000002" y="1005.0500000000001" width="144" height="20" as="geometry" />
        </mxCell>
        <mxCell id="u6FiNlCxBWFaTgEtle5j-132" value="分布式事务协同" style="text;html=1;strokeColor=none;fillColor=none;align=center;verticalAlign=middle;whiteSpace=wrap;rounded=0;" parent="1" vertex="1">
          <mxGeometry x="346.0000000000001" y="1005.05" width="144" height="20" as="geometry" />
        </mxCell>
        <mxCell id="u6FiNlCxBWFaTgEtle5j-133" value="分布式任务调度" style="text;html=1;strokeColor=none;fillColor=none;align=center;verticalAlign=middle;whiteSpace=wrap;rounded=0;" parent="1" vertex="1">
          <mxGeometry x="213.0200000000001" y="999.05" width="144" height="28" as="geometry" />
        </mxCell>
        <mxCell id="u6FiNlCxBWFaTgEtle5j-148" value="" style="rounded=0;whiteSpace=wrap;html=1;fontSize=14;strokeColor=#000000;fillColor=#FFFFFF;strokeWidth=1;dashed=1;" parent="1" vertex="1">
          <mxGeometry x="-182.44999999999993" y="1490.22" width="160" height="80" as="geometry" />
        </mxCell>
        <mxCell id="u6FiNlCxBWFaTgEtle5j-147" value="" style="sketch=0;points=[[0,0,0],[0.25,0,0],[0.5,0,0],[0.75,0,0],[1,0,0],[0,1,0],[0.25,1,0],[0.5,1,0],[0.75,1,0],[1,1,0],[0,0.25,0],[0,0.5,0],[0,0.75,0],[1,0.25,0],[1,0.5,0],[1,0.75,0]];outlineConnect=0;fontColor=#232F3E;gradientColor=#945DF2;gradientDirection=north;fillColor=#5A30B5;strokeColor=#ffffff;dashed=0;verticalLabelPosition=bottom;verticalAlign=top;align=center;html=1;fontSize=12;fontStyle=0;aspect=fixed;shape=mxgraph.aws4.resourceIcon;resIcon=mxgraph.aws4.managed_streaming_for_kafka;" parent="1" vertex="1">
          <mxGeometry x="-119.7600000000001" y="1493.9999999999998" width="38" height="38" as="geometry" />
        </mxCell>
        <mxCell id="u6FiNlCxBWFaTgEtle5j-149" value="" style="sketch=0;points=[[0,0,0],[0.25,0,0],[0.5,0,0],[0.75,0,0],[1,0,0],[0,1,0],[0.25,1,0],[0.5,1,0],[0.75,1,0],[1,1,0],[0,0.25,0],[0,0.5,0],[0,0.75,0],[1,0.25,0],[1,0.5,0],[1,0.75,0]];outlineConnect=0;fontColor=#232F3E;gradientColor=#945DF2;gradientDirection=north;fillColor=#5A30B5;strokeColor=#ffffff;dashed=0;verticalLabelPosition=bottom;verticalAlign=top;align=center;html=1;fontSize=12;fontStyle=0;aspect=fixed;shape=mxgraph.aws4.resourceIcon;resIcon=mxgraph.aws4.managed_streaming_for_kafka;" parent="1" vertex="1">
          <mxGeometry x="-167.42999999999995" y="1526.9999999999998" width="38" height="38" as="geometry" />
        </mxCell>
        <mxCell id="u6FiNlCxBWFaTgEtle5j-150" value="" style="sketch=0;points=[[0,0,0],[0.25,0,0],[0.5,0,0],[0.75,0,0],[1,0,0],[0,1,0],[0.25,1,0],[0.5,1,0],[0.75,1,0],[1,1,0],[0,0.25,0],[0,0.5,0],[0,0.75,0],[1,0.25,0],[1,0.5,0],[1,0.75,0]];outlineConnect=0;fontColor=#232F3E;gradientColor=#945DF2;gradientDirection=north;fillColor=#5A30B5;strokeColor=#ffffff;dashed=0;verticalLabelPosition=bottom;verticalAlign=top;align=center;html=1;fontSize=12;fontStyle=0;aspect=fixed;shape=mxgraph.aws4.resourceIcon;resIcon=mxgraph.aws4.managed_streaming_for_kafka;" parent="1" vertex="1">
          <mxGeometry x="-70.06000000000006" y="1527.9999999999998" width="38" height="38" as="geometry" />
        </mxCell>
        <mxCell id="u6FiNlCxBWFaTgEtle5j-156" value="Kafka" style="text;html=1;strokeColor=none;fillColor=none;align=center;verticalAlign=middle;whiteSpace=wrap;rounded=0;fontSize=14;" parent="1" vertex="1">
          <mxGeometry x="-181.21000000000015" y="1489.9999999999998" width="40.26" height="21.81" as="geometry" />
        </mxCell>
        <mxCell id="u6FiNlCxBWFaTgEtle5j-163" value="" style="outlineConnect=0;dashed=0;verticalLabelPosition=bottom;verticalAlign=top;align=center;html=1;shape=mxgraph.aws3.kinesis_streams;fillColor=#F58534;gradientColor=none;" parent="1" vertex="1">
          <mxGeometry x="249.57000000000008" y="1500.81" width="40" height="40" as="geometry" />
        </mxCell>
        <mxCell id="u6FiNlCxBWFaTgEtle5j-193" value="Hive" style="aspect=fixed;html=1;points=[];align=center;image;fontSize=12;image=img/lib/azure2/databases/Azure_Database_PostgreSQL_Server.svg;" parent="1" vertex="1">
          <mxGeometry x="252.75000000000006" y="1586.28" width="39" height="52" as="geometry" />
        </mxCell>
        <mxCell id="u6FiNlCxBWFaTgEtle5j-203" value="" style="rounded=0;whiteSpace=wrap;html=1;fillColor=#FFFFFF;" parent="1" vertex="1">
          <mxGeometry x="556" y="880" width="220" height="329.81" as="geometry" />
        </mxCell>
        <mxCell id="u6FiNlCxBWFaTgEtle5j-205" value="" style="verticalLabelPosition=bottom;html=1;verticalAlign=top;align=center;strokeColor=none;fillColor=#00BEF2;shape=mxgraph.azure.git_repository;" parent="1" vertex="1">
          <mxGeometry x="606" y="1137.06" width="50" height="50" as="geometry" />
        </mxCell>
        <mxCell id="u6FiNlCxBWFaTgEtle5j-211" value="" style="edgeStyle=orthogonalEdgeStyle;rounded=0;orthogonalLoop=1;jettySize=auto;html=1;" parent="1" source="u6FiNlCxBWFaTgEtle5j-206" edge="1">
          <mxGeometry relative="1" as="geometry">
            <mxPoint x="681" y="966.81" as="targetPoint" />
          </mxGeometry>
        </mxCell>
        <mxCell id="u6FiNlCxBWFaTgEtle5j-206" value="" style="verticalLabelPosition=bottom;html=1;verticalAlign=top;align=center;strokeColor=none;fillColor=#00BEF2;shape=mxgraph.azure.github_code;pointerEvents=1;" parent="1" vertex="1">
          <mxGeometry x="656" y="1040" width="50" height="50" as="geometry" />
        </mxCell>
        <mxCell id="u6FiNlCxBWFaTgEtle5j-208" value="" style="sketch=0;html=1;dashed=0;whitespace=wrap;fillColor=#2875E2;strokeColor=#ffffff;points=[[0.005,0.63,0],[0.1,0.2,0],[0.9,0.2,0],[0.5,0,0],[0.995,0.63,0],[0.72,0.99,0],[0.5,1,0],[0.28,0.99,0]];shape=mxgraph.kubernetes.icon;prIcon=api" parent="1" vertex="1">
          <mxGeometry x="464.62" y="1046.88" width="33.85" height="43.12" as="geometry" />
        </mxCell>
        <mxCell id="u6FiNlCxBWFaTgEtle5j-212" value="" style="shape=image;html=1;verticalAlign=top;verticalLabelPosition=bottom;labelBackgroundColor=#ffffff;imageAspect=0;aspect=fixed;image=https://cdn1.iconfinder.com/data/icons/unicons-line-vol-3/24/docker-128.png" parent="1" vertex="1">
          <mxGeometry x="649" y="906.7199999999999" width="64" height="64" as="geometry" />
        </mxCell>
        <mxCell id="u6FiNlCxBWFaTgEtle5j-215" value="Docker&amp;nbsp; Harbor" style="text;html=1;strokeColor=none;fillColor=none;align=center;verticalAlign=middle;whiteSpace=wrap;rounded=0;" parent="1" vertex="1">
          <mxGeometry x="561" y="928.28" width="100" height="28" as="geometry" />
        </mxCell>
        <mxCell id="u6FiNlCxBWFaTgEtle5j-216" value="Jenkins" style="text;html=1;strokeColor=none;fillColor=none;align=center;verticalAlign=middle;whiteSpace=wrap;rounded=0;" parent="1" vertex="1">
          <mxGeometry x="701.56" y="1050" width="60" height="30" as="geometry" />
        </mxCell>
        <mxCell id="u6FiNlCxBWFaTgEtle5j-217" value="GitLab" style="text;html=1;strokeColor=none;fillColor=none;align=center;verticalAlign=middle;whiteSpace=wrap;rounded=0;" parent="1" vertex="1">
          <mxGeometry x="546" y="1150" width="60" height="30" as="geometry" />
        </mxCell>
        <mxCell id="u6FiNlCxBWFaTgEtle5j-221" value="" style="endArrow=classic;html=1;rounded=0;exitX=0.855;exitY=0.855;exitDx=0;exitDy=0;exitPerimeter=0;entryX=0.193;entryY=0.143;entryDx=0;entryDy=0;entryPerimeter=0;" parent="1" source="u6FiNlCxBWFaTgEtle5j-206" edge="1">
          <mxGeometry width="50" height="50" relative="1" as="geometry">
            <mxPoint x="696" y="1103.81" as="sourcePoint" />
            <mxPoint x="735.6499999999996" y="1149.63725" as="targetPoint" />
          </mxGeometry>
        </mxCell>
        <mxCell id="u6FiNlCxBWFaTgEtle5j-222" value="" style="sketch=0;points=[[0.015,0.015,0],[0.985,0.015,0],[0.985,0.985,0],[0.015,0.985,0],[0.25,0,0],[0.5,0,0],[0.75,0,0],[1,0.25,0],[1,0.5,0],[1,0.75,0],[0.75,1,0],[0.5,1,0],[0.25,1,0],[0,0.75,0],[0,0.5,0],[0,0.25,0]];verticalLabelPosition=bottom;html=1;verticalAlign=top;aspect=fixed;align=center;pointerEvents=1;shape=mxgraph.cisco19.rect;prIcon=nexus_1010;fillColor=#FAFAFA;strokeColor=#005073;" parent="1" vertex="1">
          <mxGeometry x="713" y="1146.8999999999999" width="48.56" height="37.94" as="geometry" />
        </mxCell>
        <mxCell id="u6FiNlCxBWFaTgEtle5j-223" value="Nexus" style="text;html=1;strokeColor=none;fillColor=none;align=center;verticalAlign=middle;whiteSpace=wrap;rounded=0;" parent="1" vertex="1">
          <mxGeometry x="656" y="1154.84" width="60" height="30" as="geometry" />
        </mxCell>
        <mxCell id="u6FiNlCxBWFaTgEtle5j-225" value="" style="sketch=0;html=1;dashed=0;whitespace=wrap;fillColor=#2875E2;strokeColor=#ffffff;points=[[0.005,0.63,0],[0.1,0.2,0],[0.9,0.2,0],[0.5,0,0],[0.995,0.63,0],[0.72,0.99,0],[0.5,1,0],[0.28,0.99,0]];shape=mxgraph.kubernetes.icon;prIcon=user" parent="1" vertex="1">
          <mxGeometry x="710.9999999999999" y="1291.31" width="40" height="41.63" as="geometry" />
        </mxCell>
        <mxCell id="u6FiNlCxBWFaTgEtle5j-226" value="" style="sketch=0;html=1;dashed=0;whitespace=wrap;fillColor=#2875E2;strokeColor=#ffffff;points=[[0.005,0.63,0],[0.1,0.2,0],[0.9,0.2,0],[0.5,0,0],[0.995,0.63,0],[0.72,0.99,0],[0.5,1,0],[0.28,0.99,0]];shape=mxgraph.kubernetes.icon;prIcon=ds" parent="1" vertex="1">
          <mxGeometry x="575.9999999999999" y="1286.31" width="50" height="39" as="geometry" />
        </mxCell>
        <mxCell id="u6FiNlCxBWFaTgEtle5j-229" value="" style="sketch=0;html=1;dashed=0;whitespace=wrap;fillColor=#2875E2;strokeColor=#ffffff;points=[[0.005,0.63,0],[0.1,0.2,0],[0.9,0.2,0],[0.5,0,0],[0.995,0.63,0],[0.72,0.99,0],[0.5,1,0],[0.28,0.99,0]];shape=mxgraph.kubernetes.icon;prIcon=svc" parent="1" vertex="1">
          <mxGeometry x="-74.69999999999993" y="1630.66" width="43.5" height="41.81" as="geometry" />
        </mxCell>
        <mxCell id="u6FiNlCxBWFaTgEtle5j-230" value="" style="sketch=0;html=1;dashed=0;whitespace=wrap;fillColor=#2875E2;strokeColor=#ffffff;points=[[0.005,0.63,0],[0.1,0.2,0],[0.9,0.2,0],[0.5,0,0],[0.995,0.63,0],[0.72,0.99,0],[0.5,1,0],[0.28,0.99,0]];shape=mxgraph.kubernetes.icon;prIcon=svc" parent="1" vertex="1">
          <mxGeometry x="-168.83000000000004" y="1630.66" width="43.5" height="41.81" as="geometry" />
        </mxCell>
        <mxCell id="u6FiNlCxBWFaTgEtle5j-231" value="" style="sketch=0;html=1;dashed=0;whitespace=wrap;fillColor=#2875E2;strokeColor=#ffffff;points=[[0.005,0.63,0],[0.1,0.2,0],[0.9,0.2,0],[0.5,0,0],[0.995,0.63,0],[0.72,0.99,0],[0.5,1,0],[0.28,0.99,0]];shape=mxgraph.kubernetes.icon;prIcon=svc" parent="1" vertex="1">
          <mxGeometry x="-122.08000000000004" y="1601.47" width="43.5" height="41.81" as="geometry" />
        </mxCell>
        <mxCell id="u6FiNlCxBWFaTgEtle5j-232" value="" style="sketch=0;html=1;dashed=0;whitespace=wrap;fillColor=#2875E2;strokeColor=#ffffff;points=[[0.005,0.63,0],[0.1,0.2,0],[0.9,0.2,0],[0.5,0,0],[0.995,0.63,0],[0.72,0.99,0],[0.5,1,0],[0.28,0.99,0]];shape=mxgraph.kubernetes.icon;prIcon=svc" parent="1" vertex="1">
          <mxGeometry x="644.25" y="1287.4" width="41.75" height="42.6" as="geometry" />
        </mxCell>
        <mxCell id="u6FiNlCxBWFaTgEtle5j-234" value="&lt;h2 style=&quot;box-sizing: border-box ; outline: 0px ; margin: 8px 0px 16px ; padding: 0px ; font-family: &amp;#34;pingfang sc&amp;#34; , &amp;#34;microsoft yahei&amp;#34; , &amp;#34;simhei&amp;#34; , &amp;#34;arial&amp;#34; , &amp;#34;simsun&amp;#34; ; color: rgb(79 , 79 , 79) ; line-height: 30px ; overflow-wrap: break-word ; background-color: rgb(255 , 255 , 255)&quot;&gt;&lt;span style=&quot;font-weight: normal&quot;&gt;&lt;font style=&quot;font-size: 12px&quot;&gt;Fluentd&lt;/font&gt;&lt;/span&gt;&lt;/h2&gt;" style="text;html=1;strokeColor=none;fillColor=none;align=center;verticalAlign=middle;whiteSpace=wrap;rounded=0;" parent="1" vertex="1">
          <mxGeometry x="575.9999999999999" y="1329.31" width="60" height="20" as="geometry" />
        </mxCell>
        <mxCell id="u6FiNlCxBWFaTgEtle5j-235" value="&lt;h2 style=&quot;box-sizing: border-box ; outline: 0px ; margin: 8px 0px 16px ; padding: 0px ; font-family: &amp;#34;pingfang sc&amp;#34; , &amp;#34;microsoft yahei&amp;#34; , &amp;#34;simhei&amp;#34; , &amp;#34;arial&amp;#34; , &amp;#34;simsun&amp;#34; ; color: rgb(79 , 79 , 79) ; line-height: 30px ; overflow-wrap: break-word ; background-color: rgb(255 , 255 , 255)&quot;&gt;&lt;span style=&quot;font-weight: normal&quot;&gt;&lt;font style=&quot;font-size: 12px&quot;&gt;ES&lt;/font&gt;&lt;/span&gt;&lt;/h2&gt;" style="text;html=1;strokeColor=none;fillColor=none;align=center;verticalAlign=middle;whiteSpace=wrap;rounded=0;" parent="1" vertex="1">
          <mxGeometry x="637.9999999999999" y="1332.94" width="60" height="20" as="geometry" />
        </mxCell>
        <mxCell id="u6FiNlCxBWFaTgEtle5j-236" value="&lt;h2 style=&quot;box-sizing: border-box ; outline: 0px ; margin: 8px 0px 16px ; padding: 0px ; font-family: &amp;#34;pingfang sc&amp;#34; , &amp;#34;microsoft yahei&amp;#34; , &amp;#34;simhei&amp;#34; , &amp;#34;arial&amp;#34; , &amp;#34;simsun&amp;#34; ; color: rgb(79 , 79 , 79) ; line-height: 30px ; overflow-wrap: break-word ; background-color: rgb(255 , 255 , 255)&quot;&gt;&lt;span style=&quot;font-weight: normal&quot;&gt;&lt;font style=&quot;font-size: 12px&quot;&gt;Kibana&lt;/font&gt;&lt;/span&gt;&lt;/h2&gt;" style="text;html=1;strokeColor=none;fillColor=none;align=center;verticalAlign=middle;whiteSpace=wrap;rounded=0;" parent="1" vertex="1">
          <mxGeometry x="700.9999999999999" y="1327.5" width="60" height="20" as="geometry" />
        </mxCell>
        <mxCell id="u6FiNlCxBWFaTgEtle5j-237" value="日志检索平台" style="text;html=1;strokeColor=none;fillColor=none;align=center;verticalAlign=middle;whiteSpace=wrap;rounded=0;shadow=0;fontSize=12;" parent="1" vertex="1">
          <mxGeometry x="621.9999999999999" y="1257.31" width="90" height="22" as="geometry" />
        </mxCell>
        <mxCell id="u6FiNlCxBWFaTgEtle5j-238" value="" style="rounded=0;whiteSpace=wrap;html=1;shadow=0;dashed=1;fillColor=#FFFFFF;" parent="1" vertex="1">
          <mxGeometry x="568" y="1384.75" width="192" height="247.56" as="geometry" />
        </mxCell>
        <mxCell id="u6FiNlCxBWFaTgEtle5j-241" value="&lt;div&gt;&lt;font color=&quot;#323232&quot;&gt;&lt;span style=&quot;font-size: 13px&quot;&gt;&lt;br&gt;&lt;/span&gt;&lt;/font&gt;&lt;/div&gt;&lt;div&gt;&lt;br&gt;&lt;/div&gt;" style="sketch=0;aspect=fixed;html=1;points=[];align=center;image;fontSize=12;image=img/lib/mscae/Chart.svg;shadow=0;" parent="1" vertex="1">
          <mxGeometry x="595.1699999999997" y="1422.31" width="36.83" height="35.35" as="geometry" />
        </mxCell>
        <mxCell id="u6FiNlCxBWFaTgEtle5j-242" value="" style="aspect=fixed;html=1;points=[];align=center;image;fontSize=12;image=img/lib/azure2/compute/Function_Apps.svg;shadow=0;" parent="1" vertex="1">
          <mxGeometry x="690.18" y="1423.31" width="32.88" height="29" as="geometry" />
        </mxCell>
        <mxCell id="u6FiNlCxBWFaTgEtle5j-243" value="" style="aspect=fixed;html=1;points=[];align=center;image;fontSize=12;image=img/lib/azure2/compute/Cloud_Services_Classic.svg;shadow=0;" parent="1" vertex="1">
          <mxGeometry x="592.14" y="1505.07" width="37.71" height="27.24" as="geometry" />
        </mxCell>
        <mxCell id="u6FiNlCxBWFaTgEtle5j-244" value="&lt;span style=&quot;color: rgb(50 , 50 , 50) ; font-size: 13px ; background-color: rgba(255 , 255 , 255 , 0.01)&quot;&gt;Prometheus&lt;/span&gt;" style="text;html=1;strokeColor=none;fillColor=none;align=center;verticalAlign=middle;whiteSpace=wrap;rounded=0;shadow=0;fontSize=12;" parent="1" vertex="1">
          <mxGeometry x="584.9999999999999" y="1539.31" width="60" height="30" as="geometry" />
        </mxCell>
        <mxCell id="u6FiNlCxBWFaTgEtle5j-247" value="&lt;span style=&quot;color: rgb(50 , 50 , 50) ; font-size: 13px ; background-color: rgba(255 , 255 , 255 , 0.01)&quot;&gt;Alert&lt;/span&gt;" style="text;html=1;strokeColor=none;fillColor=none;align=center;verticalAlign=middle;whiteSpace=wrap;rounded=0;shadow=0;fontSize=12;" parent="1" vertex="1">
          <mxGeometry x="669.5599999999998" y="1453.84" width="60" height="30" as="geometry" />
        </mxCell>
        <mxCell id="u6FiNlCxBWFaTgEtle5j-251" value="CICD Platform" style="text;html=1;strokeColor=none;fillColor=none;align=center;verticalAlign=middle;whiteSpace=wrap;rounded=0;shadow=0;fontSize=12;" parent="1" vertex="1">
          <mxGeometry x="623" y="883.09" width="93" height="30" as="geometry" />
        </mxCell>
        <mxCell id="u6FiNlCxBWFaTgEtle5j-252" value="" style="sketch=0;points=[[0,0,0],[0.25,0,0],[0.5,0,0],[0.75,0,0],[1,0,0],[0,1,0],[0.25,1,0],[0.5,1,0],[0.75,1,0],[1,1,0],[0,0.25,0],[0,0.5,0],[0,0.75,0],[1,0.25,0],[1,0.5,0],[1,0.75,0]];outlineConnect=0;fontColor=#232F3E;gradientColor=#4D72F3;gradientDirection=north;fillColor=#3334B9;strokeColor=#ffffff;dashed=0;verticalLabelPosition=bottom;verticalAlign=top;align=center;html=1;fontSize=12;fontStyle=0;aspect=fixed;shape=mxgraph.aws4.resourceIcon;resIcon=mxgraph.aws4.database_migration_service;shadow=0;" parent="1" vertex="1">
          <mxGeometry x="676.0599999999998" y="1488.31" width="47" height="47" as="geometry" />
        </mxCell>
        <mxCell id="u6FiNlCxBWFaTgEtle5j-253" value="&lt;font color=&quot;#323232&quot;&gt;&lt;span style=&quot;font-size: 13px&quot;&gt;TimescaleDB&lt;/span&gt;&lt;/font&gt;" style="text;html=1;strokeColor=none;fillColor=none;align=center;verticalAlign=middle;whiteSpace=wrap;rounded=0;shadow=0;fontSize=12;" parent="1" vertex="1">
          <mxGeometry x="676.06" y="1539.31" width="60" height="30" as="geometry" />
        </mxCell>
        <mxCell id="u6FiNlCxBWFaTgEtle5j-256" value="监控报警平台" style="text;html=1;strokeColor=none;fillColor=none;align=center;verticalAlign=middle;whiteSpace=wrap;rounded=0;shadow=0;fontSize=12;" parent="1" vertex="1">
          <mxGeometry x="622.9999999999999" y="1388.5" width="90" height="22" as="geometry" />
        </mxCell>
        <mxCell id="u6FiNlCxBWFaTgEtle5j-259" value="" style="sketch=0;html=1;dashed=0;whitespace=wrap;fillColor=#2875E2;strokeColor=#ffffff;points=[[0.005,0.63,0],[0.1,0.2,0],[0.9,0.2,0],[0.5,0,0],[0.995,0.63,0],[0.72,0.99,0],[0.5,1,0],[0.28,0.99,0]];shape=mxgraph.kubernetes.icon;prIcon=quota;shadow=0;fontSize=12;" parent="1" vertex="1">
          <mxGeometry x="460" y="1300" width="34.62" height="39.31" as="geometry" />
        </mxCell>
        <mxCell id="u6FiNlCxBWFaTgEtle5j-275" value="ingress" style="text;html=1;strokeColor=none;fillColor=none;align=center;verticalAlign=middle;whiteSpace=wrap;rounded=0;" parent="1" vertex="1">
          <mxGeometry x="-230.95" y="1208.06" width="60" height="30" as="geometry" />
        </mxCell>
        <mxCell id="u6FiNlCxBWFaTgEtle5j-279" value="" style="endArrow=classic;html=1;rounded=0;fontSize=12;exitX=1;exitY=0.5;exitDx=0;exitDy=0;exitPerimeter=0;entryX=0.005;entryY=0.36;entryDx=0;entryDy=0;entryPerimeter=0;" parent="1" source="MQpAyLM7WQvq7NCeplu3-37" target="u6FiNlCxBWFaTgEtle5j-33" edge="1">
          <mxGeometry width="50" height="50" relative="1" as="geometry">
            <mxPoint x="-263.45" y="1200" as="sourcePoint" />
            <mxPoint x="-240" y="1180" as="targetPoint" />
          </mxGeometry>
        </mxCell>
        <mxCell id="u6FiNlCxBWFaTgEtle5j-283" value="" style="html=1;verticalLabelPosition=bottom;align=center;labelBackgroundColor=#ffffff;verticalAlign=top;strokeWidth=2;strokeColor=#0080F0;shadow=0;dashed=0;shape=mxgraph.ios7.icons.tools;pointerEvents=1;fontSize=12;" parent="1" vertex="1">
          <mxGeometry x="439.99999999999994" y="1545.3100000000004" width="50" height="32.04" as="geometry" />
        </mxCell>
        <mxCell id="u6FiNlCxBWFaTgEtle5j-299" value="&lt;b&gt;APP&lt;/b&gt;" style="text;html=1;strokeColor=none;fillColor=none;align=center;verticalAlign=middle;whiteSpace=wrap;rounded=0;fontSize=14;" parent="1" vertex="1">
          <mxGeometry x="-574.0000000000001" y="1329.9999999999998" width="60" height="30" as="geometry" />
        </mxCell>
        <mxCell id="u6FiNlCxBWFaTgEtle5j-300" value="&lt;b&gt;OPWEB&lt;/b&gt;" style="text;html=1;strokeColor=none;fillColor=none;align=center;verticalAlign=middle;whiteSpace=wrap;rounded=0;fontSize=14;" parent="1" vertex="1">
          <mxGeometry x="-574.0000000000001" y="1157.06" width="60" height="30" as="geometry" />
        </mxCell>
        <mxCell id="Y1P_9ax9ffc4BCsdmYQX-3" value="bulid img" style="text;html=1;strokeColor=none;fillColor=none;align=center;verticalAlign=middle;whiteSpace=wrap;rounded=0;dashed=1;" parent="1" vertex="1">
          <mxGeometry x="622" y="993.08" width="60" height="30" as="geometry" />
        </mxCell>
        <mxCell id="Y1P_9ax9ffc4BCsdmYQX-12" value="&lt;font color=&quot;#323232&quot;&gt;&lt;span style=&quot;font-size: 13px&quot;&gt;Grafana&lt;/span&gt;&lt;/font&gt;" style="text;html=1;strokeColor=none;fillColor=none;align=center;verticalAlign=middle;whiteSpace=wrap;rounded=0;shadow=0;fontSize=12;" parent="1" vertex="1">
          <mxGeometry x="581.9999999999999" y="1460.5" width="60" height="30" as="geometry" />
        </mxCell>
        <mxCell id="Y1P_9ax9ffc4BCsdmYQX-27" value="" style="endArrow=classic;html=1;rounded=0;fontSize=22;fontColor=#FFFFFF;exitX=0;exitY=0.5;exitDx=0;exitDy=0;exitPerimeter=0;" parent="1" source="u6FiNlCxBWFaTgEtle5j-206" edge="1">
          <mxGeometry width="50" height="50" relative="1" as="geometry">
            <mxPoint x="656" y="1030" as="sourcePoint" />
            <mxPoint x="500" y="1065" as="targetPoint" />
            <Array as="points" />
          </mxGeometry>
        </mxCell>
        <mxCell id="Y1P_9ax9ffc4BCsdmYQX-54" value="" style="rounded=0;whiteSpace=wrap;html=1;fontSize=14;strokeColor=#000000;fillColor=#FFFFFF;strokeWidth=1;dashed=1;" parent="1" vertex="1">
          <mxGeometry x="-399.65" y="1490" width="160" height="82.31" as="geometry" />
        </mxCell>
        <mxCell id="Y1P_9ax9ffc4BCsdmYQX-55" value="" style="aspect=fixed;perimeter=ellipsePerimeter;html=1;align=center;shadow=0;dashed=0;spacingTop=3;image;image=img/lib/active_directory/databases.svg;labelBackgroundColor=#FFFFFF;fontSize=12;fontColor=#000000;strokeColor=#33FFFF;strokeWidth=0;fillColor=#F2F2F2;" parent="1" vertex="1">
          <mxGeometry x="-346.5999999999999" y="1508.0900000000001" width="50" height="49" as="geometry" />
        </mxCell>
        <mxCell id="Y1P_9ax9ffc4BCsdmYQX-56" value="OSS" style="text;html=1;strokeColor=none;fillColor=none;align=center;verticalAlign=middle;whiteSpace=wrap;rounded=0;fontSize=14;" parent="1" vertex="1">
          <mxGeometry x="-394.98000000000013" y="1496.0900000000001" width="40.26" height="21.81" as="geometry" />
        </mxCell>
        <mxCell id="Y1P_9ax9ffc4BCsdmYQX-67" value="&lt;font style=&quot;font-size: 14px&quot;&gt;微&lt;br&gt;服&lt;br&gt;务&lt;br&gt;治&lt;br&gt;理&lt;/font&gt;" style="text;html=1;strokeColor=none;fillColor=none;align=center;verticalAlign=middle;whiteSpace=wrap;rounded=0;labelBackgroundColor=#FFFFFF;fontSize=12;fontColor=#000000;" parent="1" vertex="1">
          <mxGeometry x="-244.60000000000005" y="930.1999999999999" width="42" height="87" as="geometry" />
        </mxCell>
        <mxCell id="Mn06M0ClU7nQXyB_iKfc-2" value="" style="endArrow=classic;html=1;rounded=0;exitX=0.371;exitY=0.517;exitDx=0;exitDy=0;exitPerimeter=0;" parent="1" source="u6FiNlCxBWFaTgEtle5j-97" edge="1">
          <mxGeometry width="50" height="50" relative="1" as="geometry">
            <mxPoint x="230" y="1290" as="sourcePoint" />
            <mxPoint x="270" y="1240" as="targetPoint" />
          </mxGeometry>
        </mxCell>
        <mxCell id="Mn06M0ClU7nQXyB_iKfc-21" value="" style="endArrow=classic;html=1;rounded=0;entryX=0.008;entryY=0.596;entryDx=0;entryDy=0;entryPerimeter=0;" parent="1" target="u6FiNlCxBWFaTgEtle5j-233" edge="1">
          <mxGeometry width="50" height="50" relative="1" as="geometry">
            <mxPoint x="500" y="1315" as="sourcePoint" />
            <mxPoint x="620" y="1272.31" as="targetPoint" />
            <Array as="points" />
          </mxGeometry>
        </mxCell>
        <mxCell id="Mn06M0ClU7nQXyB_iKfc-24" value="EMQ" style="text;html=1;strokeColor=none;fillColor=none;align=center;verticalAlign=middle;whiteSpace=wrap;rounded=0;" parent="1" vertex="1">
          <mxGeometry x="-434.07" y="1330" width="60" height="30" as="geometry" />
        </mxCell>
        <mxCell id="Mn06M0ClU7nQXyB_iKfc-26" value="" style="sketch=0;html=1;fillColor=#5184F3;strokeColor=none;verticalAlign=top;labelPosition=center;verticalLabelPosition=bottom;align=center;spacingTop=-6;fontSize=11;fontStyle=1;fontColor=#999999;shape=mxgraph.gcp2.hexIcon;prIcon=cloud_cdn" parent="1" vertex="1">
          <mxGeometry x="-349.15000000000003" y="1419.75" width="59" height="48" as="geometry" />
        </mxCell>
        <mxCell id="Mn06M0ClU7nQXyB_iKfc-28" value="" style="endArrow=classic;html=1;rounded=0;exitX=1;exitY=0.5;exitDx=0;exitDy=0;" parent="1" source="u6FiNlCxBWFaTgEtle5j-140" target="u6FiNlCxBWFaTgEtle5j-144" edge="1">
          <mxGeometry width="50" height="50" relative="1" as="geometry">
            <mxPoint x="180" y="1580" as="sourcePoint" />
            <mxPoint x="230" y="1530" as="targetPoint" />
          </mxGeometry>
        </mxCell>
        <mxCell id="Mn06M0ClU7nQXyB_iKfc-29" value="Flink" style="text;html=1;strokeColor=none;fillColor=none;align=center;verticalAlign=middle;whiteSpace=wrap;rounded=0;" parent="1" vertex="1">
          <mxGeometry x="236.94" y="1545.31" width="60" height="30" as="geometry" />
        </mxCell>
        <mxCell id="Mn06M0ClU7nQXyB_iKfc-32" value="" style="endArrow=classic;html=1;rounded=0;entryX=0.5;entryY=0.84;entryDx=0;entryDy=0;entryPerimeter=0;exitX=0.5;exitY=0;exitDx=0;exitDy=0;" parent="1" source="Y1P_9ax9ffc4BCsdmYQX-54" target="Mn06M0ClU7nQXyB_iKfc-26" edge="1">
          <mxGeometry width="50" height="50" relative="1" as="geometry">
            <mxPoint x="290" y="1700" as="sourcePoint" />
            <mxPoint x="340" y="1650" as="targetPoint" />
            <Array as="points" />
          </mxGeometry>
        </mxCell>
        <mxCell id="Mn06M0ClU7nQXyB_iKfc-33" value="" style="rounded=0;whiteSpace=wrap;html=1;fontSize=14;strokeColor=#000000;fillColor=#FFFFFF;strokeWidth=1;dashed=1;" parent="1" vertex="1">
          <mxGeometry x="10.55" y="1600.34" width="160" height="80" as="geometry" />
        </mxCell>
        <mxCell id="Mn06M0ClU7nQXyB_iKfc-36" value="" style="outlineConnect=0;dashed=0;verticalLabelPosition=bottom;verticalAlign=top;align=center;html=1;shape=mxgraph.aws3.rds_db_instance;fillColor=#2E73B8;gradientColor=none;" parent="1" vertex="1">
          <mxGeometry x="72.78999999999999" y="1612.5" width="37.53" height="52.59" as="geometry" />
        </mxCell>
        <mxCell id="Mn06M0ClU7nQXyB_iKfc-38" value="MongoDB" style="text;html=1;strokeColor=none;fillColor=none;align=center;verticalAlign=middle;whiteSpace=wrap;rounded=0;fontSize=14;" parent="1" vertex="1">
          <mxGeometry x="12.000000000000057" y="1595.53" width="60" height="30" as="geometry" />
        </mxCell>
        <mxCell id="Mn06M0ClU7nQXyB_iKfc-41" value="Spark" style="text;html=1;strokeColor=none;fillColor=none;align=center;verticalAlign=middle;whiteSpace=wrap;rounded=0;fontSize=14;" parent="1" vertex="1">
          <mxGeometry x="341.6900000000001" y="1542.3100000000002" width="60" height="30" as="geometry" />
        </mxCell>
        <mxCell id="Mn06M0ClU7nQXyB_iKfc-43" value="大数据" style="text;html=1;strokeColor=none;fillColor=none;align=center;verticalAlign=middle;whiteSpace=wrap;rounded=0;" parent="1" vertex="1">
          <mxGeometry x="296" y="1472" width="60" height="30" as="geometry" />
        </mxCell>
        <mxCell id="Mn06M0ClU7nQXyB_iKfc-44" value="" style="endArrow=classic;html=1;rounded=0;exitX=0.714;exitY=1;exitDx=0;exitDy=0;exitPerimeter=0;" parent="1" source="u6FiNlCxBWFaTgEtle5j-33" edge="1">
          <mxGeometry width="50" height="50" relative="1" as="geometry">
            <mxPoint x="280" y="1460" as="sourcePoint" />
            <mxPoint x="287" y="1470" as="targetPoint" />
          </mxGeometry>
        </mxCell>
        <mxCell id="Mn06M0ClU7nQXyB_iKfc-45" value="" style="endArrow=classic;html=1;rounded=0;exitX=0.5;exitY=1;exitDx=0;exitDy=0;strokeColor=#FF0000;" parent="1" source="MQpAyLM7WQvq7NCeplu3-41" edge="1">
          <mxGeometry width="50" height="50" relative="1" as="geometry">
            <mxPoint x="-320" y="1350" as="sourcePoint" />
            <mxPoint x="-306" y="1330" as="targetPoint" />
          </mxGeometry>
        </mxCell>
        <mxCell id="Mn06M0ClU7nQXyB_iKfc-59" value="BI工具" style="text;html=1;strokeColor=none;fillColor=none;align=center;verticalAlign=middle;whiteSpace=wrap;rounded=0;dashed=1;" parent="1" vertex="1">
          <mxGeometry x="440" y="1598" width="60" height="30" as="geometry" />
        </mxCell>
        <mxCell id="Mn06M0ClU7nQXyB_iKfc-60" value="CDN" style="text;html=1;strokeColor=none;fillColor=none;align=center;verticalAlign=middle;whiteSpace=wrap;rounded=0;dashed=1;" parent="1" vertex="1">
          <mxGeometry x="-303.45" y="1428.25" width="60" height="27" as="geometry" />
        </mxCell>
        <mxCell id="Mn06M0ClU7nQXyB_iKfc-74" value="" style="endArrow=classic;html=1;rounded=0;" parent="1" edge="1">
          <mxGeometry width="50" height="50" relative="1" as="geometry">
            <mxPoint x="170" y="1420" as="sourcePoint" />
            <mxPoint x="170" y="1470" as="targetPoint" />
          </mxGeometry>
        </mxCell>
        <mxCell id="Mn06M0ClU7nQXyB_iKfc-81" value="" style="endArrow=classic;html=1;rounded=0;" parent="1" edge="1">
          <mxGeometry width="50" height="50" relative="1" as="geometry">
            <mxPoint x="-480" y="1170" as="sourcePoint" />
            <mxPoint x="-430" y="1170" as="targetPoint" />
          </mxGeometry>
        </mxCell>
        <mxCell id="Mn06M0ClU7nQXyB_iKfc-82" value="" style="endArrow=classic;html=1;rounded=0;exitX=0.323;exitY=0.019;exitDx=0;exitDy=0;exitPerimeter=0;strokeColor=#FF0000;" parent="1" edge="1">
          <mxGeometry width="50" height="50" relative="1" as="geometry">
            <mxPoint x="-479.00700000000006" y="1210.14112" as="sourcePoint" />
            <mxPoint x="-429" y="1210" as="targetPoint" />
          </mxGeometry>
        </mxCell>
        <mxCell id="Mn06M0ClU7nQXyB_iKfc-83" value="" style="endArrow=classic;html=1;rounded=0;strokeColor=#FF0000;" parent="1" edge="1">
          <mxGeometry width="50" height="50" relative="1" as="geometry">
            <mxPoint x="-361" y="1220" as="sourcePoint" />
            <mxPoint x="-331" y="1220" as="targetPoint" />
          </mxGeometry>
        </mxCell>
        <mxCell id="Mn06M0ClU7nQXyB_iKfc-84" value="HTTPS" style="text;html=1;strokeColor=none;fillColor=none;align=center;verticalAlign=middle;whiteSpace=wrap;rounded=0;" parent="1" vertex="1">
          <mxGeometry x="-476" y="1132" width="60" height="30" as="geometry" />
        </mxCell>
        <mxCell id="Mn06M0ClU7nQXyB_iKfc-85" value="TLS" style="text;html=1;strokeColor=none;fillColor=none;align=center;verticalAlign=middle;whiteSpace=wrap;rounded=0;" parent="1" vertex="1">
          <mxGeometry x="-477.07" y="1214" width="60" height="30" as="geometry" />
        </mxCell>
        <mxCell id="Mn06M0ClU7nQXyB_iKfc-96" value="" style="sketch=0;points=[[0,0,0],[0.25,0,0],[0.5,0,0],[0.75,0,0],[1,0,0],[0,1,0],[0.25,1,0],[0.5,1,0],[0.75,1,0],[1,1,0],[0,0.25,0],[0,0.5,0],[0,0.75,0],[1,0.25,0],[1,0.5,0],[1,0.75,0]];outlineConnect=0;fontColor=#232F3E;gradientColor=#945DF2;gradientDirection=north;fillColor=#5A30B5;strokeColor=#ffffff;dashed=0;verticalLabelPosition=bottom;verticalAlign=top;align=center;html=1;fontSize=12;fontStyle=0;aspect=fixed;shape=mxgraph.aws4.resourceIcon;resIcon=mxgraph.aws4.managed_streaming_for_kafka;" parent="1" vertex="1">
          <mxGeometry x="348.78" y="1595.34" width="38" height="38" as="geometry" />
        </mxCell>
        <mxCell id="Mn06M0ClU7nQXyB_iKfc-97" value="Kafka" style="text;html=1;strokeColor=none;fillColor=none;align=center;verticalAlign=middle;whiteSpace=wrap;rounded=0;fontSize=14;" parent="1" vertex="1">
          <mxGeometry x="348.7799999999998" y="1638.2799999999997" width="40.26" height="21.81" as="geometry" />
        </mxCell>
        <mxCell id="Mn06M0ClU7nQXyB_iKfc-104" value="" style="endArrow=classic;html=1;rounded=0;fontSize=14;strokeColor=#000000;exitX=0.313;exitY=0.946;exitDx=0;exitDy=0;exitPerimeter=0;entryX=0.5;entryY=0;entryDx=0;entryDy=0;entryPerimeter=0;" parent="1" source="u6FiNlCxBWFaTgEtle5j-206" target="u6FiNlCxBWFaTgEtle5j-205" edge="1">
          <mxGeometry width="50" height="50" relative="1" as="geometry">
            <mxPoint x="640" y="1130" as="sourcePoint" />
            <mxPoint x="640" y="1130" as="targetPoint" />
          </mxGeometry>
        </mxCell>
        <mxCell id="Mn06M0ClU7nQXyB_iKfc-109" value="" style="endArrow=classic;html=1;rounded=0;fontSize=14;strokeColor=#000000;exitX=1.001;exitY=0.426;exitDx=0;exitDy=0;exitPerimeter=0;" parent="1" source="MQpAyLM7WQvq7NCeplu3-40" edge="1">
          <mxGeometry width="50" height="50" relative="1" as="geometry">
            <mxPoint x="-360" y="1100" as="sourcePoint" />
            <mxPoint x="-330" y="1055" as="targetPoint" />
          </mxGeometry>
        </mxCell>
        <mxCell id="Mn06M0ClU7nQXyB_iKfc-113" value="" style="sketch=0;aspect=fixed;html=1;points=[];align=center;image;fontSize=12;image=img/lib/mscae/Elastic_Job_Agents.svg;strokeColor=#33FFFF;fillColor=#FFFFFF;direction=south;" parent="1" vertex="1">
          <mxGeometry x="339.04" y="1497.69" width="50" height="42" as="geometry" />
        </mxCell>
        <mxCell id="nxN-yfg1rIiFOUCBx9py-1" value="" style="endArrow=classic;html=1;rounded=0;" parent="1" edge="1">
          <mxGeometry width="50" height="50" relative="1" as="geometry">
            <mxPoint x="-470" y="1440" as="sourcePoint" />
            <mxPoint x="-340" y="1440" as="targetPoint" />
          </mxGeometry>
        </mxCell>
        <mxCell id="nxN-yfg1rIiFOUCBx9py-2" value="" style="endArrow=classic;html=1;rounded=0;entryX=1;entryY=0.5;entryDx=0;entryDy=0;exitX=0.018;exitY=0.838;exitDx=0;exitDy=0;exitPerimeter=0;" parent="1" source="u6FiNlCxBWFaTgEtle5j-33" target="Mn06M0ClU7nQXyB_iKfc-23" edge="1">
          <mxGeometry width="50" height="50" relative="1" as="geometry">
            <mxPoint x="-270" y="1400" as="sourcePoint" />
            <mxPoint x="-220" y="1350" as="targetPoint" />
          </mxGeometry>
        </mxCell>
        <mxCell id="nxN-yfg1rIiFOUCBx9py-3" value="" style="sketch=0;points=[[0,0,0],[0.25,0,0],[0.5,0,0],[0.75,0,0],[1,0,0],[0,1,0],[0.25,1,0],[0.5,1,0],[0.75,1,0],[1,1,0],[0,0.25,0],[0,0.5,0],[0,0.75,0],[1,0.25,0],[1,0.5,0],[1,0.75,0]];outlineConnect=0;fontColor=#232F3E;gradientColor=#4AB29A;gradientDirection=north;fillColor=#116D5B;strokeColor=#ffffff;dashed=0;verticalLabelPosition=bottom;verticalAlign=top;align=center;html=1;fontSize=12;fontStyle=0;aspect=fixed;shape=mxgraph.aws4.resourceIcon;resIcon=mxgraph.aws4.application_discovery_service;" parent="1" vertex="1">
          <mxGeometry x="-140.94999999999993" y="934.6099999999999" width="32.5" height="32.5" as="geometry" />
        </mxCell>
        <mxCell id="nxN-yfg1rIiFOUCBx9py-4" value="注册中心和配置中心" style="text;html=1;strokeColor=none;fillColor=none;align=center;verticalAlign=middle;whiteSpace=wrap;rounded=0;" parent="1" vertex="1">
          <mxGeometry x="-193.6" y="1005.0500000000001" width="144" height="20" as="geometry" />
        </mxCell>
        <mxCell id="nxN-yfg1rIiFOUCBx9py-5" value="" style="sketch=0;html=1;dashed=0;whitespace=wrap;fillColor=#2875E2;strokeColor=#ffffff;points=[[0.005,0.63,0],[0.1,0.2,0],[0.9,0.2,0],[0.5,0,0],[0.995,0.63,0],[0.72,0.99,0],[0.5,1,0],[0.28,0.99,0]];shape=mxgraph.kubernetes.icon;prIcon=ing" parent="1" vertex="1">
          <mxGeometry x="-220" y="1180" width="30" height="30.06" as="geometry" />
        </mxCell>
        <mxCell id="nxN-yfg1rIiFOUCBx9py-10" value="" style="sketch=0;aspect=fixed;html=1;points=[];align=center;image;fontSize=12;image=img/lib/mscae/Kubernetes.svg;" parent="1" vertex="1">
          <mxGeometry x="291.75" y="1386.75" width="30.33" height="29.12" as="geometry" />
        </mxCell>
        <mxCell id="nxN-yfg1rIiFOUCBx9py-11" value="" style="sketch=0;aspect=fixed;html=1;points=[];align=center;image;fontSize=12;image=img/lib/mscae/Kubernetes.svg;" parent="1" vertex="1">
          <mxGeometry x="-23.49000000000001" y="1386.75" width="30.33" height="29.12" as="geometry" />
        </mxCell>
        <mxCell id="nxN-yfg1rIiFOUCBx9py-12" value="" style="sketch=0;aspect=fixed;html=1;points=[];align=center;image;fontSize=12;image=img/lib/mscae/Kubernetes.svg;" parent="1" vertex="1">
          <mxGeometry x="141.66" y="1386.75" width="30.33" height="29.12" as="geometry" />
        </mxCell>
      </root>
    </mxGraphModel>
  </diagram>
</mxfile>
